<?xml version="1.0" encoding="UTF-8" standalone="no"?>
<!-- Generator: Adobe Illustrator 15.1.0, SVG Export Plug-In . SVG Version: 6.00 Build 0)  -->

<svg
   xmlns:dc="http://purl.org/dc/elements/1.1/"
   xmlns:cc="http://creativecommons.org/ns#"
   xmlns:rdf="http://www.w3.org/1999/02/22-rdf-syntax-ns#"
   xmlns:svg="http://www.w3.org/2000/svg"
   xmlns="http://www.w3.org/2000/svg"
   xmlns:sodipodi="http://sodipodi.sourceforge.net/DTD/sodipodi-0.dtd"
   xmlns:inkscape="http://www.inkscape.org/namespaces/inkscape"
   version="1.1"
   id="Calque_1"
   x="0px"
   y="0px"
   width="595.28px"
   height="841.89px"
   viewBox="0 0 595.28 841.89"
   enable-background="new 0 0 595.28 841.89"
   xml:space="preserve"
   inkscape:version="0.48.0 r9654"
   sodipodi:docname="jagui.svg"><metadata
   id="metadata3253"><rdf:RDF><cc:Work
       rdf:about=""><dc:format>image/svg+xml</dc:format><dc:type
         rdf:resource="http://purl.org/dc/dcmitype/StillImage" /><dc:title></dc:title></cc:Work></rdf:RDF></metadata><defs
   id="defs3251" /><sodipodi:namedview
   pagecolor="#ffffff"
   bordercolor="#666666"
   borderopacity="1"
   objecttolerance="10"
   gridtolerance="10"
   guidetolerance="10"
   inkscape:pageopacity="0"
   inkscape:pageshadow="2"
   inkscape:window-width="1280"
   inkscape:window-height="962"
   id="namedview3249"
   showgrid="false"
   inkscape:zoom="2.4871827"
   inkscape:cx="254.84458"
   inkscape:cy="665.50263"
   inkscape:window-x="-8"
   inkscape:window-y="-8"
   inkscape:window-maximized="1"
   inkscape:current-layer="g3121" />
<g
   id="g3121">
	<rect
   y="260.38345"
   width="599.92603"
   height="399.95001"
   id="rect3123"
   x="18.927448" />
	<rect
   x="32.151031"
   y="139.23741"
   stroke-miterlimit="10"
   width="440.75641"
   height="81.853493"
   id="rect3125"
   style="fill:#373636;stroke:#f6f6f6;stroke-width:0.54162627;stroke-miterlimit:10"
   inkscape:export-filename="U:\personnel\jagui\images\jagui.png"
   inkscape:export-xdpi="49.146759"
   inkscape:export-ydpi="49.146759" />
	<polygon
   stroke-miterlimit="10"
   points="133.543,335.02 140.971,322.156 155.825,322.156 163.253,335.02 155.825,347.885 140.971,347.885 "
   id="polygon3127"
   transform="translate(-95.313224,-174.40292)"
   style="fill:none;stroke:#ededed;stroke-width:6;stroke-miterlimit:10"
   inkscape:export-filename="U:\personnel\jagui\images\jagui.png"
   inkscape:export-xdpi="49.146759"
   inkscape:export-ydpi="49.146759" />
	<polygon
   stroke-miterlimit="10"
   points="168.91,356.549 176.337,343.685 191.191,343.685 198.619,356.549 191.191,369.414 176.337,369.414 "
   id="polygon3129"
   transform="translate(-95.313224,-174.40292)"
   style="fill:none;stroke:#9d9d9c;stroke-width:6;stroke-miterlimit:10"
   inkscape:export-filename="U:\personnel\jagui\images\jagui.png"
   inkscape:export-xdpi="49.146759"
   inkscape:export-ydpi="49.146759" />
	<polygon
   stroke-miterlimit="10"
   points="133.543,374.821 140.971,361.957 155.825,361.957 163.253,374.821 155.825,387.686 140.971,387.686 "
   id="polygon3131"
   transform="translate(-95.313224,-174.40292)"
   style="fill:none;stroke:#706f6f;stroke-width:6;stroke-miterlimit:10"
   inkscape:export-filename="U:\personnel\jagui\images\jagui.png"
   inkscape:export-xdpi="49.146759"
   inkscape:export-ydpi="49.146759" />
	<g
   id="g3133"
   transform="translate(-60.838228,-129.78822)"
   inkscape:export-filename="U:\personnel\jagui\images\jagui.png"
   inkscape:export-xdpi="49.146759"
   inkscape:export-ydpi="49.146759">
		<path
   d="m 187.201,286.92 h 6.049 v 38.26 c 0,2.054 -0.31,3.847 -0.928,5.381 -0.619,1.534 -1.503,2.814 -2.653,3.841 -1.15,1.027 -2.53,1.8 -4.138,2.319 -1.608,0.52 -3.414,0.779 -5.418,0.779 -1.707,-0.025 -3.148,-0.167 -4.323,-0.427 -1.175,-0.26 -2.06,-0.525 -2.653,-0.798 v -5.344 c 0.915,0.371 1.911,0.662 2.987,0.872 1.076,0.21 2.232,0.315 3.47,0.315 1.113,0 2.14,-0.124 3.08,-0.371 0.94,-0.247 1.744,-0.668 2.412,-1.262 0.668,-0.594 1.188,-1.385 1.559,-2.375 0.371,-0.989 0.557,-2.214 0.557,-3.674 V 286.92 z"
   id="path3135"
   inkscape:connector-curvature="0"
   style="fill:#ffffff" />
		<path
   d="m 197.403,336.572 20.225,-49.652 h 5.232 l 20.225,49.652 h -6.568 l -5.929,-14.955 h -20.761 l -5.929,14.955 h -6.495 z m 22.785,-41.933 c -2.215,6.18 -4.331,11.796 -6.346,16.848 l -1.856,4.676 h 16.457 l -1.882,-4.672 c -2.038,-5.142 -4.112,-10.759 -6.224,-16.852 h -0.149 z"
   id="path3137"
   inkscape:connector-curvature="0"
   style="fill:#ffffff" />
		<path
   d="m 279.153,316.496 h -11.318 v -5.455 h 17.367 v 24.01 c -0.52,0.272 -1.28,0.551 -2.282,0.835 -1.002,0.285 -2.146,0.551 -3.433,0.798 -1.287,0.247 -2.666,0.445 -4.138,0.594 -1.472,0.148 -2.926,0.223 -4.36,0.223 -4.255,0 -8.01,-0.582 -11.263,-1.744 -3.253,-1.163 -5.981,-2.808 -8.183,-4.936 -2.202,-2.127 -3.872,-4.713 -5.01,-7.756 -1.138,-3.043 -1.707,-6.432 -1.707,-10.168 0,-4.057 0.624,-7.743 1.87,-11.059 1.247,-3.315 3.052,-6.147 5.418,-8.498 2.365,-2.35 5.224,-4.162 8.576,-5.437 3.352,-1.274 7.044,-1.911 11.077,-1.911 1.088,0 2.177,0.043 3.266,0.13 1.088,0.087 2.127,0.21 3.117,0.371 0.989,0.161 1.904,0.353 2.746,0.575 0.841,0.223 1.546,0.458 2.115,0.705 v 5.344 c -1.484,-0.495 -3.191,-0.909 -5.121,-1.243 -1.93,-0.334 -3.859,-0.501 -5.789,-0.501 -2.82,0 -5.511,0.427 -8.071,1.28 -2.56,0.853 -4.818,2.146 -6.772,3.878 -1.955,1.732 -3.513,3.903 -4.676,6.513 -1.163,2.61 -1.744,5.672 -1.744,9.185 0,3.439 0.482,6.408 1.447,8.906 0.965,2.499 2.332,4.564 4.099,6.197 1.768,1.633 3.911,2.839 6.43,3.618 2.519,0.779 5.321,1.169 8.404,1.169 1.429,0 2.838,-0.074 4.23,-0.223 1.391,-0.148 2.626,-0.358 3.704,-0.631 v -14.769 z"
   id="path3139"
   inkscape:connector-curvature="0"
   style="fill:#ffffff" />
		<path
   d="m 313.365,332.119 c 1.807,0 3.408,-0.21 4.807,-0.631 1.396,-0.42 2.615,-1.014 3.654,-1.781 1.039,-0.767 1.904,-1.688 2.598,-2.765 0.694,-1.077 1.225,-2.27 1.596,-3.581 0.248,-0.816 0.42,-1.726 0.52,-2.728 0.1,-1.002 0.148,-1.973 0.148,-2.913 v -30.8 h 6.049 v 30.652 c 0,1.163 -0.063,2.375 -0.186,3.637 -0.123,1.262 -0.322,2.437 -0.594,3.525 -0.471,1.831 -1.176,3.525 -2.115,5.084 -0.939,1.559 -2.164,2.907 -3.674,4.045 -1.51,1.138 -3.32,2.029 -5.436,2.672 -2.116,0.643 -4.596,0.965 -7.441,0.965 -2.721,0 -5.109,-0.297 -7.162,-0.891 -2.053,-0.594 -3.816,-1.416 -5.287,-2.468 -1.473,-1.051 -2.679,-2.301 -3.619,-3.748 -0.94,-1.447 -1.67,-3.024 -2.189,-4.731 -0.371,-1.237 -0.638,-2.561 -0.798,-3.971 -0.161,-1.41 -0.241,-2.783 -0.241,-4.119 V 286.92 h 6.048 v 30.801 c 0,1.113 0.08,2.258 0.242,3.433 0.16,1.175 0.414,2.245 0.76,3.21 0.865,2.4 2.307,4.292 4.324,5.678 2.016,1.385 4.682,2.077 7.996,2.077 z"
   id="path3141"
   inkscape:connector-curvature="0"
   style="fill:#ffffff" />
		<path
   d="M 341.9,336.572 V 286.92 h 6.049 v 49.652 H 341.9 z"
   id="path3143"
   inkscape:connector-curvature="0"
   style="fill:#ffffff" />
	</g>
	
		<line
   stroke-miterlimit="10"
   x1="79.001518"
   y1="215.65388"
   x2="469.4613"
   y2="215.65388"
   id="line3145"
   style="fill:none;stroke:#706f6f;stroke-width:1.04572833;stroke-miterlimit:10"
   inkscape:export-filename="U:\personnel\jagui\images\jagui.png"
   inkscape:export-xdpi="49.146759"
   inkscape:export-ydpi="49.146759" />
	
		<line
   fill="none"
   stroke="#575756"
   stroke-width="1.5"
   stroke-miterlimit="10"
   x1="378.213"
   y1="396.359"
   x2="424.673"
   y2="396.359"
   id="line3147" />
	<rect
   x="519.85968"
   y="292.18146"
   stroke-miterlimit="10"
   width="2.221"
   height="71.60878"
   id="rect3149"
   style="fill:#878787;stroke:#575756;stroke-width:0.74307889;stroke-miterlimit:10" />
	<g
   id="g3151"
   transform="translate(-86.525478,-126.40831)"
   inkscape:export-filename="U:\personnel\jagui\images\jagui.png"
   inkscape:export-xdpi="49.146759"
   inkscape:export-ydpi="49.146759">
		<g
   id="g3153">
			<path
   d="m 384.33,281.697 h 1.672 v 10.572 c 0,0.567 -0.086,1.063 -0.256,1.487 -0.172,0.424 -0.416,0.778 -0.733,1.061 -0.318,0.284 -0.699,0.498 -1.144,0.641 -0.445,0.143 -0.943,0.215 -1.497,0.215 -0.472,-0.007 -0.87,-0.046 -1.194,-0.118 -0.325,-0.071 -0.569,-0.145 -0.733,-0.22 v -1.477 c 0.253,0.103 0.528,0.183 0.825,0.241 0.298,0.059 0.617,0.087 0.959,0.087 0.308,0 0.592,-0.034 0.852,-0.103 0.26,-0.069 0.481,-0.185 0.666,-0.349 0.185,-0.164 0.328,-0.383 0.431,-0.656 0.103,-0.273 0.153,-0.612 0.153,-1.015 v -10.366 z"
   id="path3155"
   inkscape:connector-curvature="0"
   style="fill:#1da138" />
			<path
   d="m 394.934,294.34 h -0.041 c -0.131,0.164 -0.295,0.327 -0.492,0.487 -0.199,0.161 -0.428,0.304 -0.688,0.431 -0.26,0.127 -0.543,0.227 -0.852,0.302 -0.307,0.075 -0.635,0.113 -0.984,0.113 -0.471,0 -0.904,-0.07 -1.297,-0.21 -0.393,-0.14 -0.731,-0.345 -1.015,-0.615 -0.284,-0.27 -0.505,-0.6 -0.661,-0.99 -0.158,-0.39 -0.236,-0.831 -0.236,-1.323 0,-0.485 0.087,-0.919 0.262,-1.302 0.174,-0.383 0.418,-0.708 0.732,-0.974 0.314,-0.266 0.692,-0.472 1.134,-0.615 0.44,-0.144 0.928,-0.215 1.461,-0.215 0.506,0.007 0.974,0.051 1.405,0.133 0.43,0.082 0.813,0.185 1.148,0.308 h 0.041 v -0.677 c 0,-0.267 -0.018,-0.502 -0.052,-0.708 -0.034,-0.206 -0.093,-0.386 -0.175,-0.543 -0.178,-0.328 -0.461,-0.6 -0.851,-0.815 -0.39,-0.215 -0.916,-0.323 -1.579,-0.323 -0.492,0 -0.955,0.046 -1.39,0.138 -0.435,0.093 -0.866,0.221 -1.297,0.385 v -1.333 c 0.164,-0.082 0.356,-0.159 0.579,-0.23 0.223,-0.072 0.457,-0.134 0.703,-0.185 0.246,-0.052 0.506,-0.091 0.779,-0.118 0.273,-0.027 0.547,-0.041 0.82,-0.041 0.984,0 1.789,0.174 2.414,0.523 0.626,0.349 1.075,0.81 1.349,1.384 0.103,0.219 0.176,0.46 0.221,0.723 0.044,0.264 0.066,0.552 0.066,0.867 v 6.501 h -1.333 l -0.171,-1.078 z m -0.082,-3.199 c -0.293,-0.082 -0.641,-0.161 -1.041,-0.236 -0.402,-0.075 -0.844,-0.116 -1.328,-0.123 -0.674,0 -1.201,0.144 -1.582,0.431 -0.381,0.287 -0.571,0.728 -0.571,1.323 0,0.301 0.048,0.564 0.144,0.79 0.095,0.226 0.226,0.412 0.393,0.559 0.166,0.147 0.363,0.256 0.592,0.328 0.229,0.071 0.471,0.107 0.73,0.107 0.34,0 0.656,-0.049 0.949,-0.148 0.292,-0.099 0.553,-0.217 0.78,-0.354 0.227,-0.137 0.422,-0.273 0.582,-0.41 0.159,-0.137 0.276,-0.243 0.353,-0.318 v -1.949 z"
   id="path3157"
   inkscape:connector-curvature="0"
   style="fill:#1da138" />
			<path
   d="m 402.803,293.807 c 0.235,-0.711 0.554,-1.617 0.955,-2.717 l 1.952,-5.414 h 1.589 l -3.682,9.741 h -1.648 l -3.683,-9.741 h 1.589 l 1.938,5.414 c 0.385,1.066 0.7,1.972 0.948,2.717 h 0.042 z"
   id="path3159"
   inkscape:connector-curvature="0"
   style="fill:#1da138" />
			<path
   d="m 414.918,294.34 h -0.041 c -0.13,0.164 -0.294,0.327 -0.492,0.487 -0.198,0.16 -0.428,0.304 -0.688,0.431 -0.26,0.127 -0.543,0.227 -0.851,0.302 -0.308,0.075 -0.636,0.113 -0.984,0.113 -0.472,0 -0.904,-0.07 -1.297,-0.21 -0.394,-0.14 -0.731,-0.345 -1.016,-0.615 -0.285,-0.27 -0.504,-0.6 -0.661,-0.99 -0.157,-0.39 -0.236,-0.831 -0.236,-1.323 0,-0.485 0.088,-0.919 0.262,-1.302 0.175,-0.383 0.419,-0.708 0.733,-0.974 0.314,-0.266 0.692,-0.472 1.133,-0.615 0.441,-0.144 0.929,-0.215 1.462,-0.215 0.506,0.007 0.974,0.051 1.404,0.133 0.43,0.082 0.813,0.185 1.148,0.308 h 0.041 v -0.677 c 0,-0.267 -0.018,-0.502 -0.051,-0.708 -0.035,-0.205 -0.093,-0.386 -0.175,-0.543 -0.178,-0.328 -0.462,-0.6 -0.851,-0.815 -0.391,-0.215 -0.916,-0.323 -1.58,-0.323 -0.492,0 -0.955,0.046 -1.389,0.138 -0.435,0.093 -0.867,0.221 -1.297,0.385 v -1.333 c 0.164,-0.082 0.356,-0.159 0.579,-0.23 0.222,-0.072 0.456,-0.134 0.702,-0.185 0.246,-0.052 0.506,-0.091 0.779,-0.118 0.273,-0.027 0.547,-0.041 0.82,-0.041 0.984,0 1.789,0.174 2.415,0.523 0.625,0.349 1.075,0.81 1.349,1.384 0.102,0.219 0.176,0.46 0.22,0.723 0.044,0.264 0.067,0.552 0.067,0.867 v 6.501 h -1.334 l -0.171,-1.078 z m -0.082,-3.199 c -0.293,-0.082 -0.64,-0.161 -1.041,-0.236 -0.402,-0.075 -0.844,-0.116 -1.327,-0.123 -0.674,0 -1.201,0.144 -1.582,0.431 -0.382,0.287 -0.571,0.728 -0.571,1.323 0,0.301 0.047,0.564 0.143,0.79 0.096,0.226 0.227,0.412 0.393,0.559 0.167,0.147 0.364,0.256 0.592,0.328 0.229,0.071 0.472,0.107 0.73,0.107 0.34,0 0.656,-0.049 0.949,-0.148 0.293,-0.099 0.553,-0.217 0.781,-0.354 0.228,-0.137 0.422,-0.273 0.582,-0.41 0.159,-0.137 0.276,-0.243 0.352,-0.318 v -1.949 z"
   id="path3161"
   inkscape:connector-curvature="0"
   style="fill:#1da138" />
			<path
   d="m 420.64,288.27 c 0,0.267 0.057,0.485 0.171,0.656 0.113,0.171 0.266,0.31 0.455,0.415 0.191,0.106 0.412,0.193 0.662,0.262 0.25,0.069 0.51,0.13 0.777,0.185 0.367,0.082 0.715,0.173 1.043,0.271 0.326,0.1 0.629,0.248 0.906,0.446 0.277,0.198 0.502,0.467 0.672,0.805 0.17,0.339 0.256,0.778 0.256,1.318 0,0.492 -0.096,0.928 -0.287,1.307 -0.191,0.38 -0.461,0.697 -0.811,0.954 -0.348,0.256 -0.766,0.451 -1.25,0.584 -0.486,0.134 -1.02,0.2 -1.6,0.2 -0.355,0 -0.68,-0.019 -0.97,-0.057 -0.29,-0.038 -0.547,-0.085 -0.769,-0.144 -0.223,-0.058 -0.412,-0.118 -0.569,-0.179 -0.157,-0.061 -0.287,-0.12 -0.39,-0.174 v -1.333 c 0.402,0.164 0.802,0.294 1.197,0.39 0.396,0.096 0.833,0.144 1.31,0.144 0.376,0 0.715,-0.034 1.017,-0.103 0.303,-0.068 0.563,-0.169 0.78,-0.303 0.218,-0.133 0.386,-0.3 0.503,-0.502 0.118,-0.202 0.177,-0.436 0.177,-0.703 0,-0.273 -0.054,-0.499 -0.161,-0.677 -0.107,-0.178 -0.252,-0.325 -0.433,-0.441 -0.181,-0.116 -0.392,-0.212 -0.63,-0.287 -0.238,-0.075 -0.488,-0.144 -0.75,-0.205 -0.342,-0.075 -0.689,-0.164 -1.041,-0.267 -0.353,-0.103 -0.673,-0.246 -0.961,-0.431 -0.289,-0.185 -0.521,-0.436 -0.7,-0.754 -0.178,-0.317 -0.267,-0.726 -0.267,-1.225 0,-0.513 0.092,-0.957 0.277,-1.333 0.184,-0.376 0.434,-0.687 0.748,-0.933 0.314,-0.246 0.68,-0.431 1.098,-0.554 0.416,-0.123 0.857,-0.185 1.322,-0.185 0.54,0 1.041,0.051 1.502,0.154 0.462,0.103 0.881,0.232 1.256,0.39 v 1.354 c -0.4,-0.157 -0.805,-0.285 -1.215,-0.384 -0.41,-0.099 -0.832,-0.152 -1.266,-0.159 -0.367,0 -0.681,0.038 -0.941,0.113 -0.26,0.075 -0.473,0.179 -0.641,0.313 -0.166,0.133 -0.288,0.291 -0.364,0.472 -0.075,0.181 -0.113,0.381 -0.113,0.6 z"
   id="path3163"
   inkscape:connector-curvature="0"
   style="fill:#1da138" />
			<path
   d="m 432.176,285.419 c 0.471,0 0.922,0.05 1.354,0.148 0.43,0.1 0.799,0.238 1.107,0.416 v 1.323 c -0.432,-0.164 -0.828,-0.287 -1.189,-0.369 -0.363,-0.082 -0.732,-0.123 -1.107,-0.123 -0.396,0 -0.79,0.065 -1.18,0.195 -0.39,0.13 -0.738,0.343 -1.046,0.641 -0.308,0.297 -0.556,0.69 -0.743,1.179 -0.188,0.489 -0.282,1.096 -0.282,1.82 0,0.526 0.069,1.012 0.21,1.456 0.141,0.444 0.349,0.829 0.626,1.153 0.276,0.325 0.624,0.578 1.04,0.759 0.418,0.182 0.899,0.272 1.446,0.272 0.396,0 0.796,-0.042 1.2,-0.128 0.402,-0.085 0.796,-0.207 1.179,-0.364 v 1.323 c -0.116,0.068 -0.269,0.137 -0.456,0.205 -0.188,0.068 -0.395,0.128 -0.621,0.18 -0.225,0.051 -0.465,0.092 -0.717,0.123 -0.254,0.03 -0.506,0.046 -0.76,0.046 -0.656,0 -1.276,-0.099 -1.86,-0.297 -0.585,-0.198 -1.096,-0.502 -1.533,-0.913 -0.437,-0.411 -0.782,-0.93 -1.036,-1.559 -0.252,-0.629 -0.379,-1.374 -0.379,-2.235 0,-0.643 0.066,-1.22 0.2,-1.733 0.133,-0.513 0.315,-0.964 0.548,-1.354 0.233,-0.39 0.504,-0.721 0.815,-0.995 0.311,-0.274 0.643,-0.497 0.995,-0.672 0.352,-0.174 0.716,-0.3 1.092,-0.379 0.376,-0.079 0.741,-0.118 1.097,-0.118 z"
   id="path3165"
   inkscape:connector-curvature="0"
   style="fill:#1da138" />
			<path
   d="m 442.542,286.967 h -0.123 c -0.376,0 -0.745,0.034 -1.107,0.103 -0.362,0.069 -0.702,0.173 -1.021,0.313 -0.317,0.14 -0.604,0.313 -0.861,0.518 -0.256,0.205 -0.47,0.448 -0.641,0.728 v 6.788 h -1.59 v -9.741 h 1.23 l 0.309,1.548 h 0.03 c 0.157,-0.253 0.351,-0.489 0.579,-0.708 0.228,-0.219 0.487,-0.41 0.774,-0.574 0.287,-0.164 0.602,-0.292 0.943,-0.384 0.342,-0.093 0.7,-0.139 1.077,-0.139 0.068,0 0.138,0.002 0.21,0.005 0.071,0.004 0.135,0.009 0.189,0.016 v 1.527 z"
   id="path3167"
   inkscape:connector-curvature="0"
   style="fill:#1da138" />
			<path
   d="m 444.295,283.409 v -1.774 h 1.59 v 1.774 h -1.59 z m 0.041,12.008 v -9.741 h 1.59 v 9.741 h -1.59 z"
   id="path3169"
   inkscape:connector-curvature="0"
   style="fill:#1da138" />
			<path
   d="m 457.738,290.433 c 0,0.677 -0.066,1.277 -0.201,1.799 -0.134,0.523 -0.311,0.979 -0.53,1.369 -0.219,0.39 -0.478,0.716 -0.772,0.979 -0.294,0.263 -0.601,0.475 -0.916,0.636 -0.316,0.161 -0.637,0.276 -0.963,0.349 -0.326,0.071 -0.634,0.107 -0.922,0.107 -0.598,0 -1.116,-0.098 -1.556,-0.292 -0.439,-0.195 -0.834,-0.484 -1.185,-0.867 h -0.029 v 5.67 h -1.56 v -14.509 h 1.2 l 0.338,1.107 h 0.031 c 0.088,-0.137 0.203,-0.27 0.343,-0.4 0.14,-0.13 0.328,-0.268 0.564,-0.415 0.235,-0.147 0.519,-0.275 0.851,-0.385 0.332,-0.11 0.692,-0.164 1.082,-0.164 0.547,0 1.074,0.092 1.584,0.277 0.51,0.185 0.959,0.479 1.349,0.882 0.39,0.403 0.702,0.921 0.938,1.553 0.236,0.635 0.354,1.402 0.354,2.304 z m -1.661,0.021 c 0,-0.567 -0.06,-1.077 -0.181,-1.528 -0.12,-0.451 -0.301,-0.836 -0.541,-1.153 -0.24,-0.318 -0.537,-0.563 -0.887,-0.733 -0.352,-0.171 -0.757,-0.256 -1.217,-0.256 -0.33,0 -0.631,0.044 -0.902,0.133 -0.271,0.089 -0.518,0.202 -0.738,0.338 -0.22,0.137 -0.408,0.284 -0.566,0.441 -0.158,0.157 -0.285,0.297 -0.382,0.42 v 5.096 c 0.337,0.342 0.72,0.612 1.149,0.81 0.429,0.198 0.893,0.297 1.388,0.297 0.302,0 0.622,-0.057 0.959,-0.169 0.337,-0.113 0.647,-0.314 0.933,-0.605 0.285,-0.29 0.521,-0.685 0.707,-1.184 0.186,-0.499 0.278,-1.135 0.278,-1.907 z"
   id="path3171"
   inkscape:connector-curvature="0"
   style="fill:#1da138" />
			<path
   d="m 465.388,295.437 c -0.137,0.055 -0.345,0.106 -0.626,0.154 -0.279,0.048 -0.615,0.075 -1.004,0.082 -0.514,0 -0.957,-0.063 -1.334,-0.189 -0.375,-0.126 -0.688,-0.308 -0.938,-0.544 -0.25,-0.235 -0.436,-0.521 -0.559,-0.856 -0.123,-0.335 -0.186,-0.708 -0.186,-1.118 v -5.927 h -1.876 v -1.364 h 1.876 v -2.666 h 1.59 v 2.666 h 2.912 v 1.364 h -2.912 v 5.681 c 0,0.226 0.032,0.434 0.098,0.625 0.064,0.191 0.167,0.357 0.308,0.498 0.14,0.14 0.319,0.25 0.538,0.328 0.219,0.078 0.482,0.118 0.789,0.118 0.213,0 0.437,-0.017 0.672,-0.051 0.236,-0.034 0.453,-0.079 0.651,-0.133 v 1.332 z"
   id="path3173"
   inkscape:connector-curvature="0"
   style="fill:#1da138" />
		</g>
	</g>
	<g
   id="g3175"
   transform="translate(4.7877439,-150.45699)"
   inkscape:export-filename="U:\personnel\jagui\images\jagui.png"
   inkscape:export-xdpi="49.146759"
   inkscape:export-ydpi="49.146759">
		<g
   id="g3177">
			<path
   d="m 380.188,319.598 5.588,-13.72 h 1.446 l 5.589,13.72 h -1.815 l -1.638,-4.132 h -5.737 l -1.638,4.132 h -1.795 z m 6.295,-11.587 c -0.612,1.708 -1.196,3.259 -1.753,4.655 l -0.514,1.292 h 4.547 l -0.52,-1.291 c -0.563,-1.421 -1.137,-2.973 -1.72,-4.656 h -0.04 z"
   id="path3179"
   inkscape:connector-curvature="0"
   style="fill:#1da138" />
			<path
   d="m 394.143,314.85 c 0,-0.677 0.066,-1.277 0.201,-1.799 0.133,-0.523 0.309,-0.979 0.527,-1.369 0.218,-0.39 0.475,-0.716 0.77,-0.979 0.293,-0.263 0.598,-0.477 0.912,-0.641 0.314,-0.164 0.634,-0.282 0.959,-0.354 0.324,-0.072 0.631,-0.108 0.918,-0.108 0.594,0 1.11,0.099 1.548,0.297 0.438,0.198 0.831,0.489 1.179,0.872 h 0.031 v -6.019 h 1.59 v 14.848 h -1.2 l -0.328,-1.087 h -0.041 c -0.123,0.157 -0.267,0.316 -0.431,0.477 -0.164,0.161 -0.357,0.306 -0.58,0.436 -0.222,0.13 -0.479,0.234 -0.768,0.313 -0.291,0.078 -0.628,0.118 -1.011,0.118 -0.533,0 -1.056,-0.091 -1.569,-0.272 -0.512,-0.181 -0.969,-0.472 -1.369,-0.871 -0.398,-0.4 -0.723,-0.916 -0.969,-1.549 -0.246,-0.633 -0.369,-1.404 -0.369,-2.313 z m 1.662,-0.02 c 0,0.561 0.063,1.068 0.189,1.523 0.126,0.455 0.309,0.841 0.549,1.158 0.238,0.318 0.533,0.563 0.881,0.733 0.35,0.171 0.749,0.256 1.2,0.256 0.335,0 0.64,-0.044 0.913,-0.133 0.273,-0.089 0.518,-0.202 0.732,-0.338 0.214,-0.136 0.4,-0.282 0.555,-0.436 0.152,-0.153 0.274,-0.295 0.363,-0.425 v -5.096 c -0.328,-0.335 -0.707,-0.603 -1.139,-0.805 -0.43,-0.202 -0.895,-0.303 -1.395,-0.303 -0.301,0 -0.617,0.057 -0.947,0.169 -0.332,0.113 -0.641,0.316 -0.924,0.61 -0.283,0.294 -0.518,0.689 -0.702,1.185 -0.184,0.496 -0.275,1.129 -0.275,1.902 z"
   id="path3181"
   inkscape:connector-curvature="0"
   style="fill:#1da138" />
			<path
   d="m 409.242,317.988 c 0.234,-0.711 0.553,-1.617 0.955,-2.717 l 1.951,-5.414 h 1.59 l -3.683,9.741 h -1.647 l -3.684,-9.741 h 1.59 l 1.938,5.414 c 0.385,1.066 0.701,1.972 0.949,2.717 h 0.041 z"
   id="path3183"
   inkscape:connector-curvature="0"
   style="fill:#1da138" />
			<path
   d="m 421.357,318.521 h -0.041 c -0.131,0.164 -0.295,0.327 -0.492,0.487 -0.199,0.161 -0.428,0.305 -0.688,0.431 -0.26,0.127 -0.543,0.228 -0.852,0.303 -0.307,0.075 -0.635,0.113 -0.984,0.113 -0.471,0 -0.904,-0.07 -1.297,-0.21 -0.393,-0.14 -0.731,-0.345 -1.016,-0.615 -0.283,-0.27 -0.504,-0.6 -0.66,-0.989 -0.158,-0.39 -0.236,-0.831 -0.236,-1.323 0,-0.485 0.088,-0.919 0.262,-1.302 0.174,-0.383 0.418,-0.708 0.732,-0.974 0.314,-0.266 0.693,-0.472 1.133,-0.615 0.441,-0.144 0.929,-0.215 1.462,-0.215 0.506,0.007 0.974,0.051 1.405,0.133 0.43,0.082 0.813,0.185 1.148,0.308 h 0.041 v -0.677 c 0,-0.267 -0.018,-0.502 -0.052,-0.708 -0.034,-0.206 -0.093,-0.386 -0.175,-0.543 -0.178,-0.328 -0.461,-0.6 -0.851,-0.815 -0.39,-0.216 -0.916,-0.323 -1.579,-0.323 -0.492,0 -0.955,0.046 -1.389,0.139 -0.436,0.092 -0.867,0.22 -1.298,0.384 v -1.333 c 0.164,-0.082 0.356,-0.159 0.579,-0.231 0.223,-0.071 0.457,-0.133 0.703,-0.185 0.246,-0.051 0.506,-0.09 0.779,-0.118 0.273,-0.028 0.547,-0.041 0.82,-0.041 0.984,0 1.789,0.174 2.414,0.523 0.625,0.349 1.075,0.81 1.349,1.384 0.103,0.219 0.176,0.46 0.22,0.723 0.045,0.263 0.067,0.552 0.067,0.866 v 6.501 h -1.333 l -0.171,-1.078 z m -0.082,-3.199 c -0.293,-0.082 -0.641,-0.161 -1.041,-0.236 -0.402,-0.075 -0.844,-0.116 -1.328,-0.123 -0.674,0 -1.201,0.144 -1.582,0.431 -0.381,0.287 -0.571,0.728 -0.571,1.323 0,0.301 0.048,0.564 0.144,0.79 0.095,0.226 0.226,0.412 0.393,0.559 0.166,0.147 0.363,0.257 0.592,0.328 0.229,0.072 0.471,0.108 0.73,0.108 0.34,0 0.656,-0.049 0.949,-0.149 0.292,-0.099 0.553,-0.217 0.78,-0.354 0.227,-0.137 0.422,-0.273 0.582,-0.41 0.159,-0.137 0.276,-0.243 0.353,-0.318 v -1.949 z"
   id="path3185"
   inkscape:connector-curvature="0"
   style="fill:#1da138" />
			<path
   d="m 427.479,311.21 h 0.031 c 0.178,-0.226 0.373,-0.436 0.59,-0.631 0.215,-0.194 0.455,-0.365 0.723,-0.513 0.266,-0.146 0.559,-0.261 0.877,-0.343 0.316,-0.082 0.664,-0.123 1.04,-0.123 0.444,0 0.861,0.062 1.251,0.185 0.39,0.123 0.729,0.321 1.016,0.595 0.287,0.274 0.514,0.63 0.682,1.072 0.167,0.44 0.251,0.982 0.251,1.625 v 6.521 h -1.589 v -6.265 c 0,-0.841 -0.163,-1.446 -0.488,-1.815 -0.324,-0.369 -0.797,-0.554 -1.42,-0.554 -0.547,0 -1.076,0.152 -1.589,0.456 -0.513,0.305 -0.954,0.723 -1.323,1.256 v 6.921 h -1.589 v -9.741 h 1.23 l 0.307,1.354 z"
   id="path3187"
   inkscape:connector-curvature="0"
   style="fill:#1da138" />
			<path
   d="m 441.198,309.6 c 0.472,0 0.923,0.05 1.354,0.149 0.431,0.099 0.8,0.237 1.107,0.415 v 1.323 c -0.431,-0.164 -0.827,-0.287 -1.189,-0.369 -0.362,-0.082 -0.731,-0.123 -1.107,-0.123 -0.396,0 -0.79,0.065 -1.179,0.195 -0.391,0.13 -0.738,0.344 -1.047,0.641 -0.307,0.298 -0.555,0.691 -0.742,1.18 -0.189,0.489 -0.283,1.095 -0.283,1.82 0,0.526 0.07,1.012 0.211,1.456 0.14,0.444 0.348,0.829 0.625,1.154 0.277,0.325 0.624,0.578 1.041,0.759 0.417,0.181 0.898,0.271 1.445,0.271 0.396,0 0.797,-0.042 1.2,-0.128 0.403,-0.086 0.796,-0.207 1.179,-0.364 v 1.323 c -0.115,0.068 -0.268,0.137 -0.455,0.205 -0.189,0.068 -0.396,0.128 -0.621,0.179 -0.226,0.052 -0.465,0.093 -0.718,0.123 -0.253,0.031 -0.506,0.046 -0.759,0.046 -0.656,0 -1.277,-0.099 -1.861,-0.297 -0.584,-0.198 -1.096,-0.502 -1.533,-0.913 -0.437,-0.411 -0.782,-0.93 -1.035,-1.559 -0.253,-0.629 -0.379,-1.374 -0.379,-2.235 0,-0.643 0.066,-1.22 0.199,-1.733 0.133,-0.513 0.316,-0.964 0.549,-1.354 0.233,-0.39 0.504,-0.721 0.814,-0.995 0.312,-0.273 0.643,-0.498 0.996,-0.671 0.352,-0.175 0.715,-0.301 1.092,-0.38 0.375,-0.078 0.741,-0.118 1.096,-0.118 z"
   id="path3189"
   inkscape:connector-curvature="0"
   style="fill:#1da138" />
			<path
   d="m 450.848,318.47 c 0.525,0 1.006,-0.042 1.439,-0.128 0.435,-0.085 0.867,-0.207 1.298,-0.364 v 1.323 c -0.349,0.171 -0.779,0.306 -1.292,0.405 -0.513,0.099 -1.063,0.149 -1.65,0.149 -0.697,0 -1.353,-0.089 -1.965,-0.267 -0.611,-0.178 -1.141,-0.465 -1.588,-0.861 -0.447,-0.396 -0.798,-0.914 -1.051,-1.553 -0.254,-0.639 -0.381,-1.41 -0.381,-2.313 0,-0.889 0.123,-1.659 0.369,-2.313 0.245,-0.652 0.572,-1.198 0.981,-1.635 0.409,-0.437 0.88,-0.766 1.411,-0.984 0.532,-0.219 1.088,-0.328 1.668,-0.328 0.545,0 1.055,0.091 1.529,0.272 0.474,0.181 0.885,0.466 1.232,0.856 0.347,0.39 0.622,0.892 0.823,1.507 0.201,0.615 0.302,1.354 0.302,2.215 0,0.082 0,0.152 0,0.21 0,0.059 -0.004,0.19 -0.01,0.395 h -6.727 c 0,0.622 0.094,1.15 0.281,1.584 0.187,0.434 0.444,0.786 0.77,1.056 0.324,0.271 0.705,0.467 1.143,0.59 0.438,0.123 0.912,0.184 1.418,0.184 z m -0.839,-7.506 c -0.366,0 -0.708,0.072 -1.022,0.215 -0.315,0.144 -0.59,0.338 -0.826,0.584 -0.234,0.246 -0.426,0.535 -0.57,0.866 -0.146,0.332 -0.235,0.686 -0.27,1.062 h 4.982 c 0,-0.383 -0.05,-0.74 -0.15,-1.071 -0.1,-0.332 -0.247,-0.621 -0.441,-0.867 -0.193,-0.246 -0.432,-0.439 -0.716,-0.58 -0.285,-0.139 -0.613,-0.209 -0.987,-0.209 z"
   id="path3191"
   inkscape:connector-curvature="0"
   style="fill:#1da138" />
			<path
   d="m 456.107,314.85 c 0,-0.677 0.066,-1.277 0.199,-1.799 0.135,-0.523 0.311,-0.979 0.529,-1.369 0.218,-0.39 0.475,-0.716 0.769,-0.979 0.294,-0.263 0.599,-0.477 0.913,-0.641 0.314,-0.164 0.633,-0.282 0.959,-0.354 0.324,-0.072 0.63,-0.108 0.917,-0.108 0.595,0 1.11,0.099 1.548,0.297 0.438,0.198 0.831,0.489 1.18,0.872 h 0.031 v -6.019 h 1.589 v 14.848 h -1.2 l -0.328,-1.087 h -0.041 c -0.123,0.157 -0.266,0.316 -0.43,0.477 -0.164,0.161 -0.357,0.306 -0.58,0.436 -0.223,0.13 -0.479,0.234 -0.77,0.313 -0.29,0.078 -0.627,0.118 -1.01,0.118 -0.533,0 -1.056,-0.091 -1.568,-0.272 -0.513,-0.181 -0.969,-0.472 -1.369,-0.871 -0.4,-0.4 -0.723,-0.916 -0.969,-1.549 -0.246,-0.633 -0.369,-1.404 -0.369,-2.313 z m 1.662,-0.02 c 0,0.561 0.063,1.068 0.19,1.523 0.125,0.455 0.309,0.841 0.548,1.158 0.239,0.318 0.533,0.563 0.882,0.733 0.349,0.17 0.748,0.256 1.199,0.256 0.336,0 0.64,-0.044 0.913,-0.133 0.273,-0.089 0.519,-0.202 0.733,-0.338 0.214,-0.136 0.4,-0.282 0.553,-0.436 0.154,-0.153 0.275,-0.295 0.365,-0.425 v -5.096 c -0.328,-0.335 -0.708,-0.603 -1.139,-0.805 -0.431,-0.202 -0.896,-0.303 -1.395,-0.303 -0.301,0 -0.617,0.057 -0.949,0.169 -0.331,0.113 -0.639,0.316 -0.922,0.61 -0.284,0.294 -0.518,0.689 -0.703,1.185 -0.183,0.495 -0.275,1.129 -0.275,1.902 z"
   id="path3193"
   inkscape:connector-curvature="0"
   style="fill:#1da138" />
		</g>
	</g>
	<g
   id="g3195"
   transform="translate(-87.138015,-154.79949)"
   inkscape:export-filename="U:\personnel\jagui\images\jagui.png"
   inkscape:export-xdpi="49.146759"
   inkscape:export-ydpi="49.146759">
		<g
   id="g3197">
			<path
   d="m 390.544,338.137 h -3.128 v -1.507 h 4.799 v 6.634 c -0.143,0.075 -0.354,0.152 -0.63,0.23 -0.277,0.079 -0.593,0.152 -0.948,0.221 -0.355,0.069 -0.737,0.123 -1.144,0.164 -0.407,0.041 -0.809,0.062 -1.205,0.062 -1.176,0 -2.214,-0.161 -3.112,-0.482 -0.898,-0.321 -1.652,-0.776 -2.261,-1.364 -0.609,-0.588 -1.069,-1.302 -1.384,-2.143 -0.315,-0.841 -0.473,-1.777 -0.473,-2.81 0,-1.121 0.173,-2.14 0.518,-3.056 0.344,-0.916 0.843,-1.699 1.496,-2.348 0.654,-0.649 1.443,-1.15 2.37,-1.502 0.927,-0.352 1.946,-0.528 3.062,-0.528 0.301,0 0.602,0.012 0.902,0.036 0.3,0.024 0.588,0.058 0.861,0.103 0.273,0.045 0.525,0.097 0.758,0.159 0.233,0.062 0.428,0.126 0.585,0.195 v 1.477 c -0.41,-0.137 -0.882,-0.251 -1.415,-0.344 -0.533,-0.092 -1.066,-0.138 -1.6,-0.138 -0.779,0 -1.522,0.118 -2.23,0.354 -0.707,0.235 -1.331,0.593 -1.871,1.071 -0.54,0.478 -0.971,1.079 -1.292,1.8 -0.321,0.721 -0.481,1.567 -0.481,2.538 0,0.95 0.133,1.771 0.399,2.461 0.266,0.69 0.644,1.261 1.133,1.712 0.488,0.451 1.08,0.784 1.776,1 0.696,0.215 1.471,0.323 2.322,0.323 0.395,0 0.784,-0.021 1.169,-0.062 0.384,-0.041 0.726,-0.099 1.023,-0.174 v -4.082 z"
   id="path3199"
   inkscape:connector-curvature="0"
   style="fill:#1da138" />
			<path
   d="m 400.736,335.235 h -0.123 c -0.376,0 -0.745,0.034 -1.107,0.103 -0.362,0.069 -0.702,0.173 -1.021,0.313 -0.317,0.14 -0.604,0.313 -0.861,0.518 -0.256,0.205 -0.47,0.448 -0.641,0.728 v 6.788 h -1.589 v -9.741 h 1.23 l 0.307,1.548 h 0.031 c 0.157,-0.253 0.35,-0.489 0.579,-0.708 0.229,-0.219 0.487,-0.41 0.774,-0.574 0.287,-0.164 0.602,-0.292 0.943,-0.384 0.342,-0.093 0.701,-0.139 1.076,-0.139 0.068,0 0.139,0.002 0.211,0.005 0.071,0.004 0.135,0.009 0.189,0.016 v 1.527 z"
   id="path3201"
   inkscape:connector-curvature="0"
   style="fill:#1da138" />
			<path
   d="m 408.129,342.608 h -0.041 c -0.129,0.164 -0.293,0.327 -0.492,0.487 -0.197,0.161 -0.427,0.304 -0.687,0.431 -0.26,0.127 -0.544,0.227 -0.851,0.302 -0.309,0.075 -0.637,0.113 -0.984,0.113 -0.473,0 -0.904,-0.07 -1.298,-0.21 -0.394,-0.14 -0.731,-0.345 -1.015,-0.615 -0.284,-0.27 -0.504,-0.6 -0.662,-0.99 -0.156,-0.39 -0.235,-0.831 -0.235,-1.323 0,-0.485 0.087,-0.919 0.262,-1.302 0.174,-0.383 0.419,-0.708 0.733,-0.974 0.314,-0.266 0.691,-0.472 1.133,-0.615 0.44,-0.144 0.928,-0.215 1.461,-0.215 0.506,0.007 0.975,0.051 1.404,0.133 0.432,0.082 0.814,0.185 1.148,0.308 h 0.041 v -0.677 c 0,-0.267 -0.017,-0.502 -0.051,-0.708 -0.034,-0.206 -0.092,-0.386 -0.174,-0.543 -0.178,-0.328 -0.462,-0.6 -0.852,-0.815 -0.39,-0.215 -0.916,-0.323 -1.579,-0.323 -0.492,0 -0.956,0.046 -1.39,0.138 -0.434,0.093 -0.866,0.221 -1.297,0.385 v -1.333 c 0.164,-0.082 0.357,-0.159 0.579,-0.23 0.222,-0.072 0.456,-0.134 0.702,-0.185 0.246,-0.052 0.506,-0.091 0.779,-0.118 0.273,-0.027 0.547,-0.041 0.82,-0.041 0.984,0 1.79,0.174 2.415,0.523 0.626,0.349 1.075,0.81 1.349,1.384 0.103,0.219 0.176,0.46 0.221,0.723 0.044,0.264 0.066,0.552 0.066,0.867 v 6.501 h -1.333 l -0.172,-1.078 z m -0.082,-3.199 c -0.292,-0.082 -0.639,-0.161 -1.041,-0.236 -0.401,-0.075 -0.844,-0.116 -1.326,-0.123 -0.674,0 -1.201,0.144 -1.582,0.431 -0.382,0.287 -0.572,0.728 -0.572,1.323 0,0.301 0.047,0.564 0.143,0.79 0.096,0.226 0.227,0.412 0.394,0.559 0.167,0.147 0.364,0.256 0.592,0.328 0.228,0.071 0.472,0.107 0.729,0.107 0.341,0 0.657,-0.049 0.949,-0.148 0.293,-0.099 0.553,-0.217 0.781,-0.354 0.228,-0.137 0.422,-0.273 0.582,-0.41 0.16,-0.137 0.277,-0.243 0.352,-0.318 v -1.949 z"
   id="path3203"
   inkscape:connector-curvature="0"
   style="fill:#1da138" />
			<path
   d="m 421.347,338.701 c 0,0.677 -0.067,1.277 -0.2,1.799 -0.135,0.523 -0.312,0.979 -0.531,1.369 -0.219,0.39 -0.477,0.716 -0.771,0.979 -0.296,0.263 -0.602,0.475 -0.918,0.636 -0.315,0.161 -0.637,0.276 -0.963,0.349 -0.326,0.071 -0.633,0.107 -0.921,0.107 -0.598,0 -1.116,-0.098 -1.556,-0.292 -0.439,-0.195 -0.834,-0.484 -1.184,-0.867 h -0.031 v 5.67 h -1.559 v -14.509 h 1.199 l 0.339,1.107 h 0.03 c 0.09,-0.137 0.203,-0.27 0.344,-0.4 0.141,-0.13 0.328,-0.268 0.564,-0.415 0.235,-0.147 0.52,-0.275 0.851,-0.385 0.331,-0.11 0.692,-0.164 1.082,-0.164 0.547,0 1.075,0.092 1.584,0.277 0.509,0.185 0.959,0.479 1.349,0.882 0.39,0.403 0.702,0.921 0.938,1.553 0.236,0.635 0.354,1.402 0.354,2.304 z m -1.661,0.021 c 0,-0.567 -0.061,-1.077 -0.181,-1.528 -0.12,-0.451 -0.301,-0.836 -0.542,-1.153 -0.24,-0.318 -0.535,-0.563 -0.887,-0.733 -0.35,-0.171 -0.756,-0.256 -1.217,-0.256 -0.33,0 -0.631,0.044 -0.902,0.133 -0.271,0.089 -0.518,0.202 -0.736,0.338 -0.221,0.137 -0.41,0.284 -0.568,0.441 -0.158,0.157 -0.285,0.297 -0.381,0.42 v 5.096 c 0.337,0.342 0.721,0.612 1.15,0.81 0.429,0.198 0.892,0.297 1.387,0.297 0.303,0 0.622,-0.057 0.959,-0.169 0.336,-0.113 0.648,-0.314 0.934,-0.605 0.285,-0.29 0.52,-0.685 0.706,-1.184 0.185,-0.499 0.278,-1.135 0.278,-1.907 z"
   id="path3205"
   inkscape:connector-curvature="0"
   style="fill:#1da138" />
			<path
   d="m 425.551,335.276 h 0.031 c 0.178,-0.226 0.375,-0.436 0.594,-0.63 0.219,-0.195 0.462,-0.362 0.729,-0.503 0.267,-0.14 0.554,-0.251 0.861,-0.333 0.307,-0.082 0.639,-0.123 0.994,-0.123 0.369,0 0.738,0.05 1.107,0.148 0.369,0.1 0.711,0.275 1.025,0.528 0.314,0.253 0.571,0.605 0.77,1.056 0.199,0.451 0.297,1.032 0.297,1.743 v 6.521 h -1.589 v -6.265 c 0,-0.786 -0.148,-1.377 -0.446,-1.774 -0.297,-0.396 -0.784,-0.595 -1.461,-0.595 -0.561,0 -1.094,0.152 -1.6,0.457 -0.506,0.305 -0.943,0.723 -1.313,1.256 v 6.921 h -1.59 v -14.848 h 1.59 v 6.441 z"
   id="path3207"
   inkscape:connector-curvature="0"
   style="fill:#1da138" />
			<path
   d="m 435.098,331.677 v -1.774 h 1.589 v 1.774 h -1.589 z m 0.041,12.008 v -9.741 h 1.589 v 9.741 h -1.589 z"
   id="path3209"
   inkscape:connector-curvature="0"
   style="fill:#1da138" />
			<path
   d="m 444.09,333.687 c 0.472,0 0.923,0.05 1.354,0.148 0.431,0.1 0.8,0.238 1.107,0.416 v 1.323 c -0.431,-0.164 -0.827,-0.287 -1.189,-0.369 -0.362,-0.082 -0.731,-0.123 -1.107,-0.123 -0.396,0 -0.789,0.065 -1.18,0.195 -0.389,0.13 -0.738,0.343 -1.045,0.641 -0.309,0.297 -0.557,0.69 -0.744,1.179 -0.188,0.489 -0.281,1.096 -0.281,1.82 0,0.526 0.069,1.012 0.21,1.456 0.14,0.444 0.349,0.829 0.625,1.153 0.277,0.325 0.624,0.578 1.041,0.759 0.417,0.182 0.899,0.272 1.446,0.272 0.396,0 0.796,-0.042 1.199,-0.128 0.403,-0.085 0.797,-0.207 1.18,-0.364 v 1.323 c -0.117,0.068 -0.27,0.137 -0.457,0.205 -0.187,0.068 -0.395,0.128 -0.62,0.18 -0.226,0.051 -0.465,0.092 -0.718,0.123 -0.253,0.03 -0.506,0.046 -0.759,0.046 -0.656,0 -1.276,-0.099 -1.861,-0.297 -0.584,-0.198 -1.095,-0.502 -1.532,-0.913 -0.437,-0.411 -0.783,-0.93 -1.036,-1.559 -0.253,-0.629 -0.38,-1.374 -0.38,-2.235 0,-0.643 0.067,-1.22 0.2,-1.733 0.134,-0.513 0.316,-0.964 0.549,-1.354 0.233,-0.39 0.504,-0.721 0.815,-0.995 0.311,-0.273 0.643,-0.497 0.994,-0.672 0.352,-0.174 0.717,-0.3 1.092,-0.379 0.376,-0.078 0.741,-0.118 1.097,-0.118 z"
   id="path3211"
   inkscape:connector-curvature="0"
   style="fill:#1da138" />
			<path
   d="m 454.815,342.608 h -0.041 c -0.13,0.164 -0.294,0.327 -0.492,0.487 -0.198,0.16 -0.427,0.304 -0.687,0.431 -0.26,0.127 -0.544,0.227 -0.852,0.302 -0.308,0.075 -0.636,0.113 -0.984,0.113 -0.472,0 -0.904,-0.07 -1.297,-0.21 -0.394,-0.14 -0.732,-0.345 -1.016,-0.615 -0.284,-0.27 -0.504,-0.6 -0.661,-0.99 -0.157,-0.39 -0.235,-0.831 -0.235,-1.323 0,-0.485 0.087,-0.919 0.261,-1.302 0.175,-0.383 0.419,-0.708 0.733,-0.974 0.314,-0.266 0.692,-0.472 1.133,-0.615 0.441,-0.144 0.928,-0.215 1.461,-0.215 0.506,0.007 0.975,0.051 1.405,0.133 0.43,0.082 0.813,0.185 1.148,0.308 h 0.041 v -0.677 c 0,-0.267 -0.017,-0.502 -0.052,-0.708 -0.033,-0.205 -0.092,-0.386 -0.174,-0.543 -0.178,-0.328 -0.461,-0.6 -0.852,-0.815 -0.389,-0.215 -0.916,-0.323 -1.578,-0.323 -0.492,0 -0.956,0.046 -1.39,0.138 -0.435,0.093 -0.866,0.221 -1.298,0.385 v -1.333 c 0.164,-0.082 0.357,-0.159 0.58,-0.23 0.222,-0.072 0.456,-0.134 0.702,-0.185 0.246,-0.052 0.506,-0.091 0.779,-0.118 0.273,-0.027 0.547,-0.041 0.82,-0.041 0.984,0 1.789,0.174 2.415,0.523 0.625,0.349 1.074,0.81 1.348,1.384 0.104,0.219 0.176,0.46 0.221,0.723 0.045,0.264 0.066,0.552 0.066,0.867 v 6.501 h -1.332 l -0.172,-1.078 z m -0.082,-3.199 c -0.292,-0.082 -0.64,-0.161 -1.041,-0.236 -0.401,-0.075 -0.844,-0.116 -1.327,-0.123 -0.674,0 -1.201,0.144 -1.582,0.431 -0.381,0.287 -0.572,0.728 -0.572,1.323 0,0.301 0.048,0.564 0.144,0.79 0.095,0.226 0.226,0.412 0.394,0.559 0.166,0.147 0.363,0.256 0.592,0.328 0.228,0.071 0.471,0.107 0.729,0.107 0.341,0 0.657,-0.049 0.949,-0.148 0.292,-0.099 0.553,-0.217 0.78,-0.354 0.229,-0.137 0.422,-0.273 0.582,-0.41 0.16,-0.137 0.277,-0.243 0.353,-0.318 v -1.949 z"
   id="path3213"
   inkscape:connector-curvature="0"
   style="fill:#1da138" />
			<path
   d="m 459.501,343.685 v -14.848 h 1.59 v 14.848 h -1.59 z"
   id="path3215"
   inkscape:connector-curvature="0"
   style="fill:#1da138" />
		</g>
	</g>
	<g
   id="g3217"
   transform="translate(3.4539838,-178.4588)"
   inkscape:export-filename="U:\personnel\jagui\images\jagui.png"
   inkscape:export-xdpi="49.146759"
   inkscape:export-ydpi="49.146759">
		<g
   id="g3219">
			<path
   d="m 386.873,366.163 c 0.5,0 0.941,-0.058 1.328,-0.174 0.387,-0.116 0.723,-0.28 1.01,-0.492 0.287,-0.212 0.527,-0.466 0.719,-0.764 0.191,-0.297 0.338,-0.627 0.44,-0.989 0.068,-0.226 0.116,-0.477 0.144,-0.754 0.027,-0.276 0.041,-0.545 0.041,-0.805 v -8.511 h 1.672 v 8.47 c 0,0.321 -0.018,0.656 -0.052,1.005 -0.034,0.349 -0.089,0.673 -0.164,0.974 -0.13,0.506 -0.325,0.974 -0.585,1.405 -0.26,0.431 -0.598,0.803 -1.015,1.118 -0.417,0.315 -0.917,0.561 -1.503,0.738 -0.584,0.178 -1.27,0.267 -2.055,0.267 -0.752,0 -1.412,-0.082 -1.979,-0.246 -0.567,-0.164 -1.055,-0.391 -1.462,-0.682 -0.406,-0.29 -0.739,-0.636 -0.999,-1.035 -0.26,-0.4 -0.462,-0.836 -0.604,-1.308 -0.104,-0.342 -0.177,-0.708 -0.221,-1.097 -0.045,-0.39 -0.066,-0.769 -0.066,-1.138 v -8.47 h 1.671 v 8.511 c 0,0.308 0.022,0.624 0.067,0.948 0.043,0.325 0.113,0.621 0.209,0.887 0.24,0.663 0.638,1.186 1.195,1.569 0.557,0.382 1.293,0.573 2.209,0.573 z"
   id="path3221"
   inkscape:connector-curvature="0"
   style="fill:#1da138" />
			<path
   d="m 396.594,360.247 c 0,0.267 0.057,0.485 0.171,0.656 0.113,0.171 0.266,0.31 0.456,0.416 0.19,0.106 0.411,0.193 0.662,0.261 0.25,0.068 0.51,0.13 0.777,0.185 0.367,0.082 0.715,0.173 1.042,0.272 0.327,0.099 0.63,0.248 0.907,0.446 0.277,0.198 0.501,0.466 0.672,0.805 0.17,0.338 0.256,0.777 0.256,1.317 0,0.492 -0.096,0.928 -0.287,1.308 -0.191,0.379 -0.462,0.697 -0.811,0.953 -0.349,0.257 -0.766,0.451 -1.251,0.585 -0.485,0.133 -1.019,0.2 -1.6,0.2 -0.355,0 -0.679,-0.019 -0.97,-0.056 -0.29,-0.038 -0.547,-0.086 -0.768,-0.144 -0.223,-0.058 -0.412,-0.118 -0.57,-0.18 -0.156,-0.062 -0.287,-0.12 -0.389,-0.174 v -1.333 c 0.402,0.164 0.801,0.294 1.197,0.39 0.396,0.096 0.832,0.144 1.309,0.144 0.377,0 0.715,-0.034 1.018,-0.103 0.302,-0.068 0.562,-0.169 0.779,-0.302 0.219,-0.134 0.387,-0.301 0.504,-0.503 0.117,-0.201 0.176,-0.436 0.176,-0.702 0,-0.273 -0.053,-0.499 -0.16,-0.677 -0.107,-0.178 -0.252,-0.325 -0.434,-0.441 -0.181,-0.116 -0.391,-0.212 -0.629,-0.287 -0.238,-0.075 -0.488,-0.144 -0.75,-0.205 -0.342,-0.075 -0.689,-0.164 -1.041,-0.267 -0.354,-0.103 -0.674,-0.246 -0.962,-0.431 -0.288,-0.185 -0.521,-0.436 -0.7,-0.753 -0.178,-0.318 -0.266,-0.727 -0.266,-1.226 0,-0.513 0.092,-0.957 0.276,-1.333 0.184,-0.376 0.435,-0.687 0.749,-0.933 0.314,-0.246 0.68,-0.431 1.097,-0.554 0.417,-0.123 0.858,-0.185 1.323,-0.185 0.539,0 1.041,0.051 1.502,0.154 0.461,0.103 0.88,0.232 1.256,0.39 v 1.354 c -0.4,-0.157 -0.806,-0.285 -1.216,-0.385 -0.41,-0.099 -0.832,-0.152 -1.266,-0.159 -0.366,0 -0.681,0.038 -0.94,0.113 -0.259,0.075 -0.474,0.18 -0.641,0.313 -0.166,0.134 -0.289,0.291 -0.365,0.472 -0.074,0.18 -0.113,0.38 -0.113,0.599 z"
   id="path3223"
   inkscape:connector-curvature="0"
   style="fill:#1da138" />
			<path
   d="m 408.57,366.266 c 0.527,0 1.007,-0.042 1.441,-0.128 0.434,-0.085 0.866,-0.207 1.297,-0.364 v 1.323 c -0.349,0.171 -0.779,0.306 -1.292,0.405 -0.513,0.099 -1.063,0.149 -1.651,0.149 -0.697,0 -1.352,-0.089 -1.963,-0.267 -0.612,-0.178 -1.142,-0.465 -1.59,-0.861 -0.447,-0.396 -0.797,-0.914 -1.051,-1.553 -0.253,-0.639 -0.379,-1.41 -0.379,-2.313 0,-0.889 0.122,-1.659 0.367,-2.313 0.246,-0.652 0.573,-1.198 0.982,-1.635 0.409,-0.437 0.88,-0.766 1.412,-0.984 0.531,-0.219 1.088,-0.328 1.667,-0.328 0.546,0 1.056,0.091 1.528,0.272 0.475,0.181 0.885,0.466 1.233,0.856 0.348,0.39 0.622,0.892 0.823,1.507 0.201,0.615 0.302,1.354 0.302,2.215 0,0.082 0,0.152 0,0.21 0,0.059 -0.003,0.19 -0.011,0.395 h -6.727 c 0,0.622 0.094,1.15 0.283,1.584 0.188,0.434 0.443,0.786 0.768,1.056 0.325,0.271 0.707,0.467 1.145,0.59 0.438,0.123 0.91,0.184 1.416,0.184 z m -0.838,-7.506 c -0.367,0 -0.707,0.072 -1.023,0.215 -0.314,0.144 -0.59,0.338 -0.824,0.584 -0.236,0.246 -0.426,0.535 -0.571,0.866 -0.146,0.332 -0.235,0.686 -0.271,1.062 h 4.984 c 0,-0.383 -0.051,-0.74 -0.15,-1.071 -0.102,-0.332 -0.248,-0.621 -0.441,-0.867 -0.194,-0.246 -0.434,-0.439 -0.717,-0.58 -0.284,-0.139 -0.614,-0.209 -0.987,-0.209 z"
   id="path3225"
   inkscape:connector-curvature="0"
   style="fill:#1da138" />
			<path
   d="m 419.737,358.944 h -0.123 c -0.376,0 -0.745,0.034 -1.107,0.103 -0.362,0.069 -0.702,0.173 -1.021,0.313 -0.318,0.141 -0.605,0.313 -0.861,0.518 -0.256,0.205 -0.47,0.448 -0.641,0.728 v 6.788 h -1.59 v -9.741 h 1.23 l 0.309,1.548 h 0.03 c 0.157,-0.253 0.351,-0.489 0.579,-0.708 0.228,-0.219 0.487,-0.41 0.774,-0.574 0.287,-0.164 0.602,-0.292 0.943,-0.385 0.342,-0.092 0.7,-0.138 1.077,-0.138 0.068,0 0.139,0.002 0.209,0.005 0.072,0.003 0.136,0.008 0.19,0.015 v 1.528 z"
   id="path3227"
   inkscape:connector-curvature="0"
   style="fill:#1da138" />
		</g>
	</g>
	<g
   id="g3229"
   transform="translate(-87.652015,-182.54262)"
   inkscape:export-xdpi="49.146759"
   inkscape:export-ydpi="49.146759"
   inkscape:export-filename="U:\personnel\jagui\images\jagui.png">
		<path
   d="m 381.572,391.107 v -13.72 h 1.672 v 13.72 h -1.672 z"
   id="path3231"
   inkscape:connector-curvature="0"
   style="fill:#1da138" />
		<path
   d="m 388.063,382.719 h 0.03 c 0.178,-0.226 0.375,-0.436 0.59,-0.631 0.216,-0.194 0.457,-0.365 0.723,-0.513 0.268,-0.146 0.56,-0.261 0.877,-0.343 0.318,-0.082 0.665,-0.123 1.041,-0.123 0.444,0 0.861,0.062 1.251,0.185 0.39,0.123 0.728,0.321 1.015,0.595 0.287,0.274 0.515,0.63 0.683,1.072 0.167,0.44 0.251,0.982 0.251,1.625 v 6.521 h -1.59 v -6.265 c 0,-0.841 -0.162,-1.446 -0.486,-1.815 -0.325,-0.369 -0.799,-0.554 -1.42,-0.554 -0.547,0 -1.077,0.152 -1.59,0.456 -0.513,0.305 -0.953,0.723 -1.322,1.256 v 6.921 h -1.59 v -9.741 h 1.23 l 0.307,1.354 z"
   id="path3233"
   inkscape:connector-curvature="0"
   style="fill:#1da138" />
		<path
   d="m 402.736,391.127 c -0.137,0.055 -0.345,0.106 -0.625,0.154 -0.28,0.048 -0.615,0.075 -1.005,0.082 -0.513,0 -0.957,-0.063 -1.333,-0.19 -0.376,-0.126 -0.689,-0.308 -0.938,-0.543 -0.249,-0.236 -0.436,-0.521 -0.559,-0.856 -0.123,-0.335 -0.185,-0.708 -0.185,-1.118 v -5.927 h -1.877 v -1.364 h 1.877 V 378.7 h 1.59 v 2.666 h 2.912 v 1.364 h -2.912 v 5.681 c 0,0.226 0.031,0.434 0.097,0.625 0.066,0.191 0.167,0.357 0.308,0.497 0.141,0.141 0.32,0.25 0.539,0.328 0.219,0.079 0.481,0.118 0.789,0.118 0.212,0 0.436,-0.017 0.672,-0.051 0.235,-0.034 0.453,-0.079 0.65,-0.133 v 1.332 z"
   id="path3235"
   inkscape:connector-curvature="0"
   style="fill:#1da138" />
		<path
   d="m 409.515,389.979 c 0.526,0 1.007,-0.042 1.44,-0.128 0.433,-0.086 0.867,-0.207 1.297,-0.364 v 1.323 c -0.348,0.171 -0.779,0.306 -1.291,0.405 -0.514,0.099 -1.063,0.149 -1.651,0.149 -0.697,0 -1.353,-0.089 -1.964,-0.267 -0.611,-0.178 -1.141,-0.465 -1.589,-0.861 -0.447,-0.396 -0.798,-0.914 -1.051,-1.553 -0.253,-0.639 -0.38,-1.41 -0.38,-2.313 0,-0.889 0.123,-1.659 0.368,-2.313 0.245,-0.652 0.573,-1.198 0.981,-1.635 0.41,-0.438 0.881,-0.766 1.412,-0.984 0.531,-0.218 1.088,-0.328 1.668,-0.328 0.545,0 1.055,0.091 1.528,0.272 0.473,0.181 0.885,0.466 1.233,0.856 0.348,0.39 0.621,0.892 0.822,1.507 0.201,0.615 0.303,1.354 0.303,2.215 0,0.082 0,0.152 0,0.21 0,0.059 -0.004,0.19 -0.011,0.395 h -6.727 c 0,0.622 0.094,1.15 0.282,1.584 0.188,0.434 0.443,0.786 0.769,1.056 0.325,0.271 0.706,0.467 1.144,0.59 0.438,0.123 0.911,0.184 1.417,0.184 z m -0.839,-7.506 c -0.366,0 -0.707,0.072 -1.022,0.215 -0.315,0.143 -0.59,0.338 -0.825,0.584 -0.235,0.246 -0.426,0.535 -0.57,0.866 -0.146,0.332 -0.236,0.686 -0.271,1.062 h 4.983 c 0,-0.383 -0.051,-0.74 -0.15,-1.071 -0.101,-0.332 -0.248,-0.621 -0.441,-0.867 -0.193,-0.246 -0.433,-0.439 -0.717,-0.58 -0.284,-0.139 -0.613,-0.209 -0.987,-0.209 z"
   id="path3237"
   inkscape:connector-curvature="0"
   style="fill:#1da138" />
		<path
   d="m 420.682,382.658 h -0.123 c -0.377,0 -0.746,0.034 -1.107,0.103 -0.363,0.068 -0.703,0.173 -1.021,0.313 -0.318,0.141 -0.605,0.313 -0.861,0.518 -0.257,0.205 -0.47,0.448 -0.642,0.728 v 6.788 h -1.589 v -9.741 h 1.23 l 0.308,1.548 h 0.031 c 0.156,-0.253 0.35,-0.489 0.579,-0.708 0.229,-0.219 0.487,-0.41 0.774,-0.574 0.287,-0.164 0.602,-0.292 0.943,-0.385 0.342,-0.092 0.7,-0.138 1.076,-0.138 0.068,0 0.139,0.002 0.21,0.005 0.072,0.003 0.136,0.008 0.19,0.015 v 1.528 z"
   id="path3239"
   inkscape:connector-curvature="0"
   style="fill:#1da138" />
		<path
   d="m 428.023,377.51 c -0.205,-0.041 -0.432,-0.072 -0.678,-0.092 -0.246,-0.02 -0.457,-0.031 -0.635,-0.031 -0.355,0 -0.676,0.044 -0.959,0.133 -0.284,0.089 -0.521,0.231 -0.713,0.425 -0.191,0.195 -0.338,0.451 -0.441,0.77 -0.102,0.317 -0.153,0.702 -0.153,1.153 v 1.497 h 2.901 v 1.364 h -2.901 v 8.377 h -1.589 v -8.377 h -1.713 v -1.364 h 1.713 v -1.487 c 0,-0.704 0.094,-1.297 0.281,-1.779 0.188,-0.482 0.446,-0.878 0.774,-1.189 0.328,-0.311 0.714,-0.54 1.159,-0.688 0.443,-0.146 0.922,-0.22 1.436,-0.22 0.328,0 0.63,0.017 0.907,0.051 0.276,0.034 0.479,0.072 0.61,0.113 v 1.344 z"
   id="path3241"
   inkscape:connector-curvature="0"
   style="fill:#1da138" />
		<path
   d="m 434.75,390.03 h -0.041 c -0.131,0.164 -0.295,0.327 -0.492,0.487 -0.199,0.161 -0.428,0.305 -0.688,0.431 -0.26,0.127 -0.543,0.228 -0.852,0.303 -0.307,0.075 -0.635,0.113 -0.984,0.113 -0.471,0 -0.904,-0.07 -1.297,-0.21 -0.393,-0.14 -0.731,-0.345 -1.015,-0.615 -0.284,-0.27 -0.505,-0.6 -0.661,-0.989 -0.158,-0.39 -0.236,-0.831 -0.236,-1.323 0,-0.485 0.087,-0.919 0.262,-1.302 0.174,-0.383 0.418,-0.708 0.732,-0.974 0.314,-0.266 0.692,-0.472 1.134,-0.615 0.44,-0.144 0.928,-0.215 1.461,-0.215 0.506,0.007 0.974,0.051 1.405,0.133 0.43,0.082 0.813,0.185 1.148,0.308 h 0.041 v -0.677 c 0,-0.267 -0.018,-0.502 -0.052,-0.708 -0.034,-0.206 -0.093,-0.386 -0.175,-0.543 -0.178,-0.328 -0.461,-0.6 -0.851,-0.815 -0.39,-0.216 -0.916,-0.323 -1.579,-0.323 -0.492,0 -0.955,0.046 -1.39,0.139 -0.435,0.092 -0.866,0.22 -1.297,0.384 v -1.333 c 0.164,-0.082 0.356,-0.159 0.579,-0.231 0.223,-0.071 0.457,-0.133 0.703,-0.185 0.246,-0.051 0.506,-0.09 0.779,-0.118 0.273,-0.028 0.547,-0.041 0.82,-0.041 0.984,0 1.789,0.174 2.414,0.523 0.626,0.349 1.075,0.81 1.349,1.384 0.103,0.219 0.176,0.46 0.221,0.723 0.044,0.263 0.066,0.552 0.066,0.866 v 6.501 h -1.333 l -0.171,-1.078 z m -0.082,-3.199 c -0.293,-0.082 -0.641,-0.161 -1.041,-0.236 -0.402,-0.075 -0.844,-0.116 -1.328,-0.123 -0.674,0 -1.201,0.144 -1.582,0.431 -0.381,0.287 -0.571,0.728 -0.571,1.323 0,0.301 0.048,0.564 0.144,0.79 0.095,0.226 0.226,0.412 0.393,0.559 0.166,0.147 0.363,0.257 0.592,0.328 0.229,0.072 0.471,0.108 0.73,0.108 0.34,0 0.656,-0.049 0.949,-0.149 0.292,-0.099 0.553,-0.217 0.78,-0.354 0.227,-0.137 0.422,-0.273 0.582,-0.41 0.159,-0.137 0.276,-0.243 0.353,-0.318 v -1.949 z"
   id="path3243"
   inkscape:connector-curvature="0"
   style="fill:#1da138" />
		<path
   d="m 443.517,381.109 c 0.472,0 0.923,0.05 1.354,0.149 0.431,0.099 0.8,0.237 1.107,0.415 v 1.323 c -0.431,-0.164 -0.827,-0.287 -1.189,-0.369 -0.362,-0.082 -0.731,-0.123 -1.107,-0.123 -0.396,0 -0.79,0.065 -1.179,0.195 -0.391,0.13 -0.738,0.344 -1.047,0.641 -0.307,0.298 -0.555,0.691 -0.743,1.18 -0.188,0.489 -0.282,1.095 -0.282,1.82 0,0.526 0.07,1.012 0.211,1.456 0.14,0.444 0.349,0.829 0.625,1.154 0.277,0.325 0.624,0.578 1.041,0.759 0.417,0.181 0.898,0.271 1.445,0.271 0.396,0 0.797,-0.042 1.2,-0.128 0.403,-0.086 0.796,-0.207 1.18,-0.364 v 1.323 c -0.117,0.068 -0.269,0.137 -0.457,0.205 -0.188,0.068 -0.395,0.128 -0.62,0.179 -0.226,0.052 -0.465,0.093 -0.718,0.123 -0.253,0.031 -0.506,0.046 -0.759,0.046 -0.656,0 -1.276,-0.099 -1.861,-0.297 -0.584,-0.198 -1.096,-0.502 -1.533,-0.913 -0.437,-0.411 -0.782,-0.93 -1.035,-1.559 -0.253,-0.629 -0.379,-1.374 -0.379,-2.235 0,-0.643 0.066,-1.22 0.199,-1.733 0.134,-0.513 0.316,-0.964 0.549,-1.354 0.233,-0.39 0.504,-0.721 0.815,-0.995 0.311,-0.273 0.642,-0.498 0.994,-0.671 0.353,-0.175 0.716,-0.301 1.093,-0.38 0.374,-0.078 0.74,-0.118 1.096,-0.118 z"
   id="path3245"
   inkscape:connector-curvature="0"
   style="fill:#1da138" />
		<path
   d="m 453.165,389.979 c 0.526,0 1.007,-0.042 1.441,-0.128 0.434,-0.085 0.866,-0.207 1.297,-0.364 v 1.323 c -0.349,0.171 -0.779,0.306 -1.292,0.405 -0.513,0.099 -1.063,0.149 -1.651,0.149 -0.697,0 -1.352,-0.089 -1.963,-0.267 -0.612,-0.178 -1.142,-0.465 -1.589,-0.861 -0.447,-0.396 -0.798,-0.914 -1.052,-1.553 -0.253,-0.639 -0.379,-1.41 -0.379,-2.313 0,-0.889 0.122,-1.659 0.368,-2.313 0.245,-0.652 0.572,-1.198 0.981,-1.635 0.409,-0.437 0.88,-0.766 1.411,-0.984 0.532,-0.219 1.088,-0.328 1.668,-0.328 0.545,0 1.055,0.091 1.529,0.272 0.474,0.181 0.885,0.466 1.232,0.856 0.347,0.39 0.622,0.892 0.823,1.507 0.201,0.615 0.302,1.354 0.302,2.215 0,0.082 0,0.152 0,0.21 0,0.059 -0.004,0.19 -0.011,0.395 h -6.727 c 0,0.622 0.095,1.15 0.282,1.584 0.188,0.434 0.444,0.786 0.77,1.056 0.324,0.271 0.705,0.467 1.144,0.59 0.439,0.122 0.91,0.184 1.416,0.184 z m -0.838,-7.506 c -0.367,0 -0.708,0.072 -1.022,0.215 -0.315,0.144 -0.59,0.338 -0.825,0.584 -0.235,0.246 -0.426,0.535 -0.571,0.866 -0.146,0.332 -0.235,0.686 -0.271,1.062 h 4.984 c 0,-0.383 -0.051,-0.74 -0.151,-1.071 -0.1,-0.332 -0.247,-0.621 -0.441,-0.867 -0.193,-0.246 -0.433,-0.439 -0.716,-0.58 -0.285,-0.139 -0.613,-0.209 -0.987,-0.209 z"
   id="path3247"
   inkscape:connector-curvature="0"
   style="fill:#1da138" />
	</g>
</g>
</svg>